<svg id="Logo" xmlns="http://www.w3.org/2000/svg" viewBox="0 0 2282.97 217.2">
  <title>logo</title>
  <g>
    <path d="M296.32,893.69h95.4q34.2,0,60.45,13T493,943.49q14.55,23.7,14.55,55.2T493,1053.89q-14.55,23.7-40.8,36.75t-60.45,13h-95.4Zm93,170.1q31.5,0,50.25-17.55t18.75-47.55q0-30-18.75-47.55t-50.25-17.55h-44.4v130.2Z" transform="translate(-296.32 -890.09)" fill="#212121"/>
    <path d="M698,1036.19H575.92a38,38,0,0,0,15.6,23.7q12.3,8.7,30.6,8.7a62,62,0,0,0,22.35-3.75A54.13,54.13,0,0,0,662.62,1053l24.9,27q-22.8,26.1-66.6,26.1-27.3,0-48.3-10.65t-32.4-29.55q-11.4-18.9-11.4-42.9,0-23.7,11.25-42.75a78.81,78.81,0,0,1,30.9-29.7q19.65-10.65,43.95-10.65,23.7,0,42.9,10.2A74.45,74.45,0,0,1,688,979.34q10.95,19,10.95,44.25Q698.92,1024.49,698,1036.19Zm-109.5-51.9q-10.8,9-13.2,24.6h79.5q-2.4-15.3-13.2-24.45t-26.4-9.15Q599.32,975.29,588.52,984.29Z" transform="translate(-296.32 -890.09)" fill="#212121"/>
    <path d="M775.87,1093.34a104.11,104.11,0,0,1-40.8-38.7q-14.85-24.75-14.85-56t14.85-56a104.11,104.11,0,0,1,40.8-38.7q25.95-13.95,58.35-13.95,27.3,0,49.35,9.6a98.85,98.85,0,0,1,37,27.6l-31.2,28.8q-21.3-24.6-52.8-24.6-19.5,0-34.8,8.55A60.78,60.78,0,0,0,778,963.89q-8.55,15.3-8.55,34.8t8.55,34.8a60.78,60.78,0,0,0,23.85,23.85q15.3,8.55,34.8,8.55,31.5,0,52.8-24.9l31.2,28.8a97.25,97.25,0,0,1-37.2,27.9q-22.2,9.58-49.5,9.6Q801.82,1107.29,775.87,1093.34Z" transform="translate(-296.32 -890.09)" fill="#212121"/>
    <path d="M991.57,1093.19a104.58,104.58,0,0,1-41.1-38.85q-14.85-24.75-14.85-55.65T950.47,943a104.58,104.58,0,0,1,41.1-38.85q26.23-14.1,58.95-14.1t58.8,14.1a106.07,106.07,0,0,1,41.1,38.85q15,24.75,15,55.65t-15,55.65a106.07,106.07,0,0,1-41.1,38.85q-26.1,14.1-58.8,14.1T991.57,1093.19Zm92.55-35.85a61.42,61.42,0,0,0,23.55-23.85q8.55-15.3,8.55-34.8t-8.55-34.8A61.42,61.42,0,0,0,1084.12,940a70.3,70.3,0,0,0-67.2,0,61.29,61.29,0,0,0-23.55,23.85q-8.55,15.3-8.55,34.8t8.55,34.8a61.29,61.29,0,0,0,23.55,23.85,70.3,70.3,0,0,0,67.2,0Z" transform="translate(-296.32 -890.09)" fill="#212121"/>
    <path d="M1393.11,1103.69l-.3-126-61.8,103.8h-21.9l-61.5-101.1v123.3H1202v-210h40.2l78.6,130.5,77.4-130.5h39.9l.6,210Z" transform="translate(-296.32 -890.09)" fill="#212121"/>
    <path d="M1679.61,1103.69l-.3-126-61.8,103.8h-21.9l-61.5-101.1v123.3h-45.6v-210h40.2l78.6,130.5,77.4-130.5h39.9l.6,210Z" transform="translate(-296.32 -890.09)" fill="#212121"/>
    <path d="M1937.61,1064.69v39H1775v-210h158.7v39h-110.4v45.6h97.5v37.8h-97.5v48.6Z" transform="translate(-296.32 -890.09)" fill="#212121"/>
    <path d="M2110.1,1103.69l-40.5-58.5h-44.7v58.5h-48.6v-210h90.9q27.9,0,48.45,9.3t31.65,26.4q11.1,17.1,11.1,40.5t-11.25,40.35q-11.25,17-32,26l47.1,67.5Zm-12.3-161q-11.4-9.45-33.3-9.45h-39.6v73.2h39.6q21.9,0,33.3-9.6t11.4-27Q2109.2,952.19,2097.8,942.74Z" transform="translate(-296.32 -890.09)" fill="#212121"/>
    <path d="M2239.25,1093.34a104.11,104.11,0,0,1-40.8-38.7q-14.85-24.75-14.85-56t14.85-56a104.11,104.11,0,0,1,40.8-38.7q25.93-13.95,58.35-13.95,27.29,0,49.35,9.6a98.85,98.85,0,0,1,37.05,27.6l-31.2,28.8q-21.3-24.6-52.8-24.6-19.5,0-34.8,8.55a60.78,60.78,0,0,0-23.85,23.85q-8.55,15.3-8.55,34.8t8.55,34.8a60.78,60.78,0,0,0,23.85,23.85q15.3,8.55,34.8,8.55,31.5,0,52.8-24.9l31.2,28.8a97.25,97.25,0,0,1-37.2,27.9q-22.2,9.58-49.5,9.6Q2265.2,1107.29,2239.25,1093.34Z" transform="translate(-296.32 -890.09)" fill="#212121"/>
    <path d="M2579.29,1064.69v39H2416.7v-210h158.69v39H2465v45.6h97.5v37.8H2465v48.6Z" transform="translate(-296.32 -890.09)" fill="#212121"/>
  </g>
</svg>
