<?xml version="1.0" encoding="utf-8"?>
<!-- Generator: Adobe Illustrator 15.1.0, SVG Export Plug-In . SVG Version: 6.00 Build 0)  -->
<!DOCTYPE svg PUBLIC "-//W3C//DTD SVG 1.1//EN" "http://www.w3.org/Graphics/SVG/1.1/DTD/svg11.dtd">
<svg version="1.1" id="Layer_1" xmlns="http://www.w3.org/2000/svg" xmlns:xlink="http://www.w3.org/1999/xlink" x="0px" y="0px"
	 width="237.6px" height="72px" viewBox="0 0 237.6 72" enable-background="new 0 0 237.6 72" xml:space="preserve">
<rect x="-1" fill="#FFFFFF" fill-opacity="0" width="237.6" height="72"/>
<g>
	<g>
		<polygon fill="#4D4D4D" points="157.301,31.199 173.351,31.199 173.351,35.814 161.981,35.814 161.981,40.879 173.351,40.879 
			173.351,45.411 161.981,45.411 161.981,51.326 173.351,51.326 173.351,55.958 157.301,55.958 		"/>
		<polygon fill="#4D4D4D" points="133.209,31.199 137.72,31.199 148.338,47.491 148.338,31.199 153.053,31.199 153.053,55.958 
			148.523,55.958 137.922,39.721 137.922,55.958 133.209,55.958 		"/>
		<polygon fill="#4D4D4D" points="80.404,31.199 85.015,31.199 90.736,48.467 96.546,31.199 101.088,31.199 105.26,55.958 
			100.715,55.958 98.055,40.322 92.788,55.958 88.634,55.958 83.435,40.322 80.724,55.958 76.129,55.958 		"/>
		<path fill="#4D4D4D" d="M118.474,31.199c-6.838,0-12.379,5.542-12.379,12.381c0,6.834,5.541,12.378,12.379,12.378
			c6.837,0,12.378-5.544,12.378-12.378C130.853,36.741,125.312,31.199,118.474,31.199z M118.474,51.146
			c-4.179,0-7.565-3.39-7.565-7.565c0-4.181,3.387-7.567,7.565-7.567c4.176,0,7.569,3.386,7.569,7.567
			C126.043,47.757,122.65,51.146,118.474,51.146z"/>
		<path fill="#4D4D4D" d="M191.398,45.027c7.765-3.188,5.127-13.825-2.421-13.825c-0.262,0-11.304-0.003-11.304-0.003v24.759h4.709
			V45.477h4.112l5.572,10.481h5.154L191.398,45.027z M188.959,40.879c-0.063,0-6.576,0-6.576,0v-5.064c0,0,6.498,0,6.576,0
			c1.397,0,2.534,1.132,2.534,2.531C191.493,39.742,190.357,40.879,188.959,40.879z"/>
		<path fill="#4D4D4D" d="M210.647,31.199c-6.832,0-12.378,5.542-12.378,12.381c0,6.834,5.546,12.378,12.378,12.378
			c6.838,0,12.385-5.544,12.385-12.378C223.031,36.741,217.485,31.199,210.647,31.199z M210.647,51.146
			c-4.177,0-7.563-3.39-7.563-7.565c0-4.181,3.386-7.567,7.563-7.567c4.184,0,7.565,3.386,7.565,7.567
			C218.213,47.757,214.83,51.146,210.647,51.146z"/>
	</g>
	<g>
		<path fill="#F06A25" d="M41.255,9.313c-16.739,0-31.266,16.189-25.335,35.112h7.987V21.976l17.348,17.346l17.349-17.346v22.449
			h7.987c5.784-18.206-7.803-35.108-25.336-35.108V9.313z"/>
		<path fill="#4E4F4F" d="M29.694,35.737v14.127l-11.251,0.001c4.687,7.686,13.154,12.822,22.813,12.822
			c9.659,0,18.127-5.142,22.813-12.823H52.815V35.737l-11.56,11.558L29.694,35.737z"/>
	</g>
	<g>
		<path fill="#4D4D4E" d="M91.769,15.769L89.123,26.15h-2.5l-1.411-5.453c-0.029-0.106-0.065-0.266-0.109-0.479
			c-0.044-0.213-0.092-0.446-0.146-0.698s-0.103-0.489-0.146-0.712c-0.043-0.223-0.069-0.402-0.08-0.538
			c-0.01,0.136-0.037,0.315-0.08,0.538c-0.044,0.223-0.09,0.458-0.138,0.706c-0.049,0.247-0.097,0.479-0.146,0.698
			c-0.05,0.219-0.088,0.385-0.116,0.501l-1.396,5.438h-2.5L77.709,15.77h2.167l1.323,5.67c0.058,0.223,0.12,0.504,0.188,0.843
			c0.067,0.339,0.131,0.679,0.189,1.018c0.058,0.339,0.102,0.625,0.131,0.857c0.028-0.242,0.072-0.53,0.131-0.865
			c0.058-0.335,0.119-0.659,0.182-0.974c0.063-0.315,0.119-0.56,0.167-0.734l1.513-5.816h2.079l1.513,5.816
			c0.049,0.174,0.104,0.419,0.167,0.734c0.063,0.315,0.124,0.642,0.182,0.981c0.059,0.339,0.103,0.625,0.131,0.857
			c0.029-0.242,0.073-0.53,0.131-0.865c0.059-0.335,0.124-0.669,0.196-1.003s0.133-0.618,0.182-0.851l1.323-5.67L91.769,15.769
			L91.769,15.769z"/>
		<path fill="#4D4D4E" d="M98.908,26.15h-5.977V15.769h5.977v1.803h-3.781v2.283h3.519v1.803h-3.519v2.675h3.781V26.15z"/>
		<path fill="#4D4D4E" d="M110.482,26.15l-0.756-2.472h-3.78l-0.756,2.472h-2.37l3.664-10.425h2.69l3.679,10.425H110.482z
			 M109.202,21.832l-0.757-2.414c-0.049-0.165-0.111-0.373-0.188-0.625c-0.078-0.252-0.155-0.509-0.233-0.771
			s-0.141-0.489-0.188-0.683c-0.048,0.194-0.114,0.434-0.196,0.72s-0.16,0.558-0.231,0.814c-0.073,0.257-0.13,0.439-0.167,0.545
			l-0.741,2.414H109.202z"/>
		<path fill="#4D4D4E" d="M117.912,17.456c-0.844,0-1.488,0.315-1.935,0.945c-0.445,0.63-0.669,1.493-0.669,2.588
			c0,1.104,0.206,1.96,0.618,2.566s1.073,0.909,1.985,0.909c0.417,0,0.838-0.048,1.265-0.146c0.427-0.097,0.887-0.232,1.381-0.407
			v1.847c-0.456,0.184-0.906,0.32-1.352,0.407c-0.446,0.087-0.945,0.131-1.498,0.131c-1.076,0-1.958-0.221-2.646-0.662
			c-0.688-0.441-1.196-1.062-1.525-1.861c-0.33-0.799-0.495-1.732-0.495-2.799c0-1.047,0.188-1.972,0.566-2.777
			c0.378-0.805,0.929-1.435,1.65-1.89s1.607-0.684,2.654-0.684c0.514,0,1.029,0.065,1.548,0.196c0.518,0.131,1.015,0.308,1.49,0.531
			l-0.713,1.789c-0.388-0.184-0.777-0.344-1.171-0.48C118.674,17.523,118.29,17.456,117.912,17.456z"/>
		<path fill="#4D4D4E" d="M126.519,17.456c-0.843,0-1.486,0.315-1.934,0.945c-0.446,0.63-0.669,1.493-0.669,2.588
			c0,1.104,0.206,1.96,0.618,2.566c0.411,0.606,1.072,0.909,1.983,0.909c0.417,0,0.839-0.048,1.267-0.146
			c0.426-0.097,0.887-0.232,1.381-0.407v1.847c-0.456,0.184-0.906,0.32-1.354,0.407c-0.444,0.087-0.943,0.131-1.497,0.131
			c-1.076,0-1.958-0.221-2.646-0.662c-0.688-0.441-1.197-1.062-1.526-1.861c-0.33-0.799-0.494-1.732-0.494-2.799
			c0-1.047,0.188-1.972,0.566-2.777c0.379-0.805,0.928-1.435,1.65-1.89c0.722-0.455,1.606-0.684,2.652-0.684
			c0.515,0,1.03,0.065,1.549,0.196c0.52,0.131,1.017,0.308,1.49,0.531l-0.712,1.789c-0.389-0.184-0.778-0.344-1.171-0.48
			C127.281,17.523,126.896,17.456,126.519,17.456z"/>
		<path fill="#4D4D4E" d="M136.987,26.15h-5.976V15.769h5.976v1.803h-3.779v2.283h3.519v1.803h-3.519v2.675h3.779V26.15z"/>
		<path fill="#4D4D4E" d="M142.106,15.769c1.337,0,2.313,0.289,2.931,0.865c0.614,0.577,0.923,1.369,0.923,2.377
			c0,0.611-0.126,1.178-0.378,1.701s-0.671,0.945-1.258,1.265s-1.385,0.479-2.393,0.479h-0.945v3.693h-2.194v-10.38H142.106z
			 M141.99,17.572h-1.005v3.083h0.729c0.62,0,1.112-0.124,1.476-0.371c0.364-0.247,0.545-0.647,0.545-1.2
			C143.734,18.076,143.153,17.572,141.99,17.572z"/>
		<path fill="#4D4D4E" d="M151.556,26.15h-2.195v-8.549h-2.819v-1.832h7.837v1.832h-2.821L151.556,26.15L151.556,26.15z"/>
	</g>
</g>
</svg>
