<?xml version="1.0" encoding="UTF-8"?>
<!-- Generator: Adobe Illustrator 22.1.0, SVG Export Plug-In . SVG Version: 6.00 Build 0)  -->
<svg version="1.1" id="monero" xmlns="http://www.w3.org/2000/svg" xmlns:xlink="http://www.w3.org/1999/xlink" x="0px" y="0px" viewBox="0 0 200 200" style="enable-background:new 0 0 200 200;" xml:space="preserve">
<style type="text/css">
	.st0{fill:none;}
	.st1{fill:#F16822;}
	.st2{fill:#4D4D4D;}
</style>
<g>
	<path class="st0" d="M197.5,100c0,53.8-43.7,97.5-97.5,97.5c-53.8,0-97.5-43.7-97.5-97.5C2.5,46.1,46.1,2.5,100,2.5   C153.8,2.5,197.5,46.1,197.5,100z"/>
	<path id="_149931032_1_" class="st1" d="M100,2.5C46.2,2.5,2.4,46.2,2.5,100c0,10.8,1.7,21.1,4.9,30.8h29.2v-82l63.4,63.4   l63.4-63.4v82h29.2c3.2-9.7,4.9-20,5-30.8C197.6,46.2,153.8,2.5,100,2.5L100,2.5z"/>
	<path id="_149931160_1_" class="st2" d="M85.4,126.7L57.8,99v51.6H47.2H36.6l-20,0c17.1,28.1,48,46.9,83.3,46.9   c35.3,0,66.2-18.8,83.3-46.9l-20,0h-18.9h-2.2V99l-27.7,27.7L100,141.3L85.4,126.7L85.4,126.7z"/>
</g>
</svg>