<?xml version="1.0" encoding="utf-8"?>
<!-- Generator: Adobe Illustrator 22.0.1, SVG Export Plug-In . SVG Version: 6.00 Build 0)  -->
<svg version="1.1" id="We_Accept" xmlns="http://www.w3.org/2000/svg" xmlns:xlink="http://www.w3.org/1999/xlink" x="0px" y="0px"
	 viewBox="0 0 5669.3 1417.3" style="enable-background:new 0 0 5669.3 1417.3;" xml:space="preserve">
<style type="text/css">
	.st0{fill:#F7931A;}
	.st1{fill:#FFFFFF;}
	.st2{fill:none;}
	.st3{fill:#F16822;}
	.st4{fill:#4D4D4D;}
	.st5{fill:#627EEA;}
	.st6{fill:#FFFFFF;fill-opacity:0.602;}
	.st7{fill:#FFFFFF;fill-opacity:0.2;}
	.st8{fill:#26A17B;}
</style>
<g id="Bitcoin">
	<g id="_1421344023328">
		<path class="st0" d="M1141.8,772.4c-58.1,232.9-294,374.7-527,316.6C382,1030.9,240.2,795,298.3,562c58-233,294-374.7,526.9-316.7
			C1058.1,303.4,1199.9,539.4,1141.8,772.4L1141.8,772.4L1141.8,772.4z"/>
		<path class="st1" d="M911.8,605.2c8.7-57.9-35.4-89-95.6-109.7l19.5-78.4L788,405.2l-19,76.3c-12.5-3.1-25.4-6.1-38.2-9l19.2-76.8
			l-47.7-11.9l-19.6,78.4c-10.4-2.4-20.6-4.7-30.5-7.2l0.1-0.2l-65.8-16.4l-12.7,51c0,0,35.4,8.1,34.7,8.6
			c19.3,4.8,22.8,17.6,22.2,27.8L608.4,615c1.3,0.3,3.1,0.8,5,1.6c-1.6-0.4-3.3-0.8-5-1.2l-31.2,125.1c-2.4,5.9-8.4,14.7-21.9,11.3
			c0.5,0.7-34.7-8.7-34.7-8.7l-23.7,54.6l62.1,15.5c11.6,2.9,22.9,5.9,34,8.8l-19.7,79.3l47.7,11.9l19.6-78.4
			c13,3.5,25.7,6.8,38,9.9L659,922.6l47.7,11.9l19.7-79.1c81.4,15.4,142.5,9.2,168.3-64.4c20.7-59.3-1-93.4-43.8-115.7
			C882.1,668.1,905.5,647.6,911.8,605.2L911.8,605.2L911.8,605.2z M802.8,758.1c-14.7,59.3-114.5,27.2-146.9,19.2l26.2-105
			C714.5,680.3,818.2,696.3,802.8,758.1L802.8,758.1z M817.5,604.4c-13.5,53.9-96.5,26.5-123.4,19.8l23.8-95.3
			C744.8,535.6,831.5,548.2,817.5,604.4L817.5,604.4z"/>
	</g>
</g>
<g id="Monero">
	<path class="st2" d="M2570.2,667.2c0,240-194.9,434.9-434.9,434.9s-434.9-194.9-434.9-434.9c0-240.4,194.5-434.9,434.9-434.9
		C2375.3,232.4,2570.2,426.8,2570.2,667.2z"/>
	<path id="_149931032_1_" class="st3" d="M2135.3,232.4c-240,0-435.3,194.9-434.9,434.9c0,48.2,7.6,94.1,21.9,137.4h130.2V438.9
		l282.8,282.8l282.8-282.8v365.7h130.2c14.3-43.3,21.9-89.2,22.3-137.4C2570.6,427.3,2375.3,232.4,2135.3,232.4L2135.3,232.4z"/>
	<path id="_149931160_1_" class="st4" d="M2070.2,786.3l-123.1-123.6v230.2h-47.3h-47.3h-89.2c76.3,125.3,214.1,209.2,371.5,209.2
		s295.3-83.9,371.5-209.2h-89.2h-84.3h-9.8V662.8l-123.6,123.6l-64.2,65.1L2070.2,786.3L2070.2,786.3z"/>
</g>
<g id="Ethereum">
	<circle class="st5" cx="3554.8" cy="667.2" r="434.8"/>
	<g>
		<path class="st6" d="M3568.3,341.1v241.1l203.7,91L3568.3,341.1z"/>
		<path class="st1" d="M3568.3,341.1l-203.8,332.1l203.8-91V341.1z"/>
		<path class="st6" d="M3568.3,829.4v163.8l203.9-282.1L3568.3,829.4z"/>
		<path class="st1" d="M3568.3,993.2V829.3l-203.8-118.2L3568.3,993.2z"/>
		<path class="st7" d="M3568.3,791.5l203.7-118.3l-203.7-91V791.5z"/>
		<path class="st6" d="M3364.6,673.2l203.8,118.3V582.2L3364.6,673.2z"/>
	</g>
</g>
<path id="TetherBG" class="st8" d="M4968.7,232.4c240.1,0,434.8,194.7,434.8,434.8S5208.9,1102,4968.7,1102
	s-434.8-194.6-434.8-434.8S4728.6,232.4,4968.7,232.4z"/>
<g id="Tether" transform="translate(336.29 -181.139)">
	<path id="path1_fill" class="st1" d="M4693.7,799.8v-64.7h148v-98.6h-402.8v98.6h148v64.7c-120.2,5.6-210.6,29.4-210.6,57.9
		c0,28.5,90.5,52.3,210.6,57.9v207.1h107V915.5c120.1-5.6,210.3-29.4,210.3-57.9C4904,829.2,4813.7,805.4,4693.7,799.8L4693.7,799.8
		z M4693.8,898c-3,0.1-18.5,1.1-53,1.1c-27.7,0-47-0.7-53.9-1.1v0.1c-106.2-4.7-185.5-23.2-185.5-45.3c0-22.1,79.2-40.6,185.5-45.3
		v72c7,0.5,26.8,1.7,54.4,1.7c33,0,49.5-1.3,52.7-1.7v-72.2c106,4.7,185.2,23.2,185.2,45.3C4878.8,874.7,4799.7,893.2,4693.8,898"/>
</g>
</svg>
