<svg xmlns="http://www.w3.org/2000/svg" version="1.1" xmlns:xlink="http://www.w3.org/1999/xlink" xmlns:svgjs="http://svgjs.com/svgjs" width="512" height="512" x="0" y="0" viewBox="0 0 470.04 470.04" style="enable-background:new 0 0 512 512" xml:space="preserve" class=""><g transform="matrix(0.6000000000000001,0,0,0.6000000000000001,94.00799560546872,94.00786628723142)">
<g xmlns="http://www.w3.org/2000/svg">
	<g>
		<path d="M466.04,6.425c-2.209,0-4,1.791-4,4H462c0,7.24-0.36,14.56-1.04,21.72c-0.209,2.198,1.402,4.149,3.6,4.36h0.4    c2.062,0.01,3.794-1.548,4-3.6c0.72-7.4,1.08-14.96,1.08-22.48C470.04,8.216,468.249,6.425,466.04,6.425z" fill="#212121" data-original="#000000" class=""></path>
	</g>
</g>
<g xmlns="http://www.w3.org/2000/svg">
	<g>
		<path d="M461.52,73.625c0.585-2.132-0.668-4.335-2.8-4.92c-2.132-0.585-4.335,0.668-4.92,2.8    c-11.354,40.555-33.795,77.139-64.8,105.64c-11.942-10.339-30.003-9.039-40.342,2.902c-4.514,5.213-6.992,11.882-6.978,18.778    c0.006,3.634,0.712,7.233,2.08,10.6c-25.027,13.711-52.434,22.535-80.76,26c-3.218-15.464-18.364-25.391-33.828-22.172    c-11.145,2.32-19.853,11.028-22.172,22.172c-28.326-3.465-55.733-12.289-80.76-26c1.368-3.367,2.074-6.966,2.08-10.6    c-0.132-15.724-12.916-28.401-28.64-28.4c-6.781-0.009-13.339,2.418-18.48,6.84C34.602,134.293,8.067,73.813,8,10.425    c0-2.209-1.791-4-4-4s-4,1.791-4,4c0.093,65.685,27.649,128.339,76,172.8c-3.179,4.726-4.853,10.304-4.8,16    c0.017,14.244,10.499,26.311,24.6,28.32v44.08H77.56c-1.435-0.006-2.763,0.757-3.48,2l-22.12,38.36c-0.715,1.238-0.715,2.762,0,4    l22.12,38.44c0.717,1.242,2.045,2.006,3.48,2h44.28c1.435,0.006,2.763-0.758,3.48-2l22.12-38.36c0.715-1.238,0.715-2.762,0-4    l-22.12-38.44c-0.717-1.243-2.045-2.006-3.48-2h-18.16v-44.48c7.369-1.043,14.041-4.917,18.6-10.8    c26.009,14.318,54.525,23.511,84,27.08c1.083,13.424,11.373,24.28,24.72,26.08v41.56h-38.08h-0.64c-0.344,0.07-0.679,0.177-1,0.32    c-0.921,0.547-1.583,1.44-1.84,2.48l-41.36,71.44v0.32v0.32c-0.327,0.891-0.327,1.869,0,2.76v0.32v0.28l41.16,71.28    c0.257,1.04,0.919,1.933,1.84,2.48c0.61,0.346,1.299,0.525,2,0.52h83.64c0.346,0.039,0.694,0.039,1.04,0l0.84-0.36    c0.41-0.244,0.765-0.571,1.04-0.96l0.24-0.28v-0.24l41.72-72.28v-0.28v-0.32c0.327-0.891,0.327-1.869,0-2.76v-0.32v-0.32    l-41.4-72.4v-0.24l-0.24-0.32c-0.29-0.365-0.642-0.676-1.04-0.92c-0.408-0.229-0.856-0.379-1.32-0.44H239v-41.64    c13.269-1.886,23.455-12.72,24.52-26.08c29.544-3.544,58.13-12.737,84.2-27.08c4.559,5.883,11.231,9.757,18.6,10.8v44.48h-18.16    c-1.42,0.009-2.73,0.77-3.44,2l-22.16,38.36c-0.715,1.238-0.715,2.762,0,4l22.16,38.44c0.71,1.23,2.02,1.991,3.44,2h44.28    c1.435,0.006,2.763-0.757,3.48-2l22.12-38.36c0.715-1.238,0.715-2.762,0-4l-22.12-38.36c-0.717-1.243-2.045-2.006-3.48-2h-18.12    v-44.56c15.629-2.13,26.572-16.526,24.442-32.155c-0.577-4.231-2.094-8.278-4.442-11.845    C426.469,153.598,449.741,115.671,461.52,73.625z M119.52,279.625l19.84,34.36l-20,34.36H79.88l-20-34.36l20-34.36H119.52z     M99.921,219.704c-11.398,0.133-20.746-9-20.879-20.399c-0.133-11.398,9-20.746,20.399-20.879c0.08-0.001,0.159-0.001,0.239-0.001    c11.306-0.001,20.509,9.095,20.64,20.4C120.453,210.224,111.32,219.571,99.921,219.704z M193.2,323.305l12.8,22.16l-21.92,37.92    h-25.6L193.2,323.305z M213,349.225l44.2,0.08l21.8,38l-21.96,38.08h-44L191,387.305L213,349.225z M158.48,391.305h25.6    l21.92,37.96l-12.8,22.16L158.48,391.305z M200.04,455.505l13.16-22.2h44l12.8,22.2H200.04z M276.56,451.585l-12.8-22.2l22-38.08    h25.6L276.56,451.585z M311.36,383.305h-25.6l-22-38.08l12.8-22.16L311.36,383.305z M269.8,319.145l-12.6,22.16h-44l-12.8-22.16    H269.8z M255.52,241.025c0.005,11.377-9.214,20.604-20.591,20.609s-20.604-9.214-20.609-20.591c0-0.006,0-0.012,0-0.018    c-0.02-0.266-0.02-0.534,0-0.8c0.515-11.032,9.637-19.695,20.68-19.64c10.982,0.031,20.008,8.67,20.52,19.64    C255.54,240.492,255.54,240.759,255.52,241.025z M390.12,279.705l20.04,34.36l-20,34.36h-39.68l-20-34.36l20-34.36H390.12z     M370.32,219.705c-11.399,0-20.64-9.241-20.64-20.64c0-0.013,0-0.027,0-0.04c0.022-11.384,9.256-20.6,20.64-20.6    c11.399,0,20.64,9.241,20.64,20.64C390.96,210.464,381.719,219.705,370.32,219.705z" fill="#212121" data-original="#000000" class=""></path>
	</g>
</g>
<g xmlns="http://www.w3.org/2000/svg">
</g>
<g xmlns="http://www.w3.org/2000/svg">
</g>
<g xmlns="http://www.w3.org/2000/svg">
</g>
<g xmlns="http://www.w3.org/2000/svg">
</g>
<g xmlns="http://www.w3.org/2000/svg">
</g>
<g xmlns="http://www.w3.org/2000/svg">
</g>
<g xmlns="http://www.w3.org/2000/svg">
</g>
<g xmlns="http://www.w3.org/2000/svg">
</g>
<g xmlns="http://www.w3.org/2000/svg">
</g>
<g xmlns="http://www.w3.org/2000/svg">
</g>
<g xmlns="http://www.w3.org/2000/svg">
</g>
<g xmlns="http://www.w3.org/2000/svg">
</g>
<g xmlns="http://www.w3.org/2000/svg">
</g>
<g xmlns="http://www.w3.org/2000/svg">
</g>
<g xmlns="http://www.w3.org/2000/svg">
</g>
</g></svg>