<svg xmlns="http://www.w3.org/2000/svg" version="1.1" xmlns:xlink="http://www.w3.org/1999/xlink" xmlns:svgjs="http://svgjs.com/svgjs" width="512" height="512" x="0" y="0" viewBox="0 0 465.36 465.36" style="enable-background:new 0 0 512 512" xml:space="preserve" class=""><g transform="matrix(0.6,0,0,0.6,93.07183532714842,93.07200317382808)">
<g xmlns="http://www.w3.org/2000/svg">
	<g>
		<path d="M286.756,179.803c-1.426-1.688-3.949-1.9-5.637-0.475c-0.157,0.132-0.303,0.277-0.438,0.431l-48.56,47.68l-26-20.44    c-1.734-1.37-4.25-1.074-5.62,0.66c-1.37,1.734-1.074,4.25,0.66,5.62l28.76,22.64c1.589,1.238,3.852,1.101,5.28-0.32l51.08-50.16    C287.969,184.014,288.182,181.491,286.756,179.803z" fill="#212121" data-original="#000000" class=""></path>
	</g>
</g>
<g xmlns="http://www.w3.org/2000/svg">
	<g>
		<path d="M314.721,150.68v-0.28c0,0,0,0-0.24,0c-45.359-45.114-118.641-45.114-164,0h-0.28c0,0,0,0.2,0,0.28    c-45.114,45.359-45.114,118.641,0,164c0,0,0,0,0,0.28h0.28c45.359,45.115,118.641,45.115,164,0h0.24v-0.28    C359.836,269.321,359.836,196.039,314.721,150.68z M311.721,306.52l-6.68-6.68c-1.437-1.678-3.962-1.873-5.64-0.436    c-1.678,1.437-1.873,3.962-0.436,5.64c0.134,0.156,0.28,0.302,0.436,0.436l6.68,6.68c-19.01,17.735-43.779,28.018-69.76,28.96    v-9.48c0-2.209-1.791-4-4-4c-2.209,0-4,1.791-4,4v9.48c-25.981-0.942-50.75-11.225-69.76-28.96l6.68-6.68    c1.551-1.56,1.551-4.08,0-5.64c-1.556-1.568-4.088-1.579-5.657-0.023c-0.008,0.008-0.016,0.015-0.023,0.023l-6.64,6.68    c-17.706-19.021-27.96-43.789-28.88-69.76h9.48c2.209,0,4-1.791,4-4c0-2.209-1.791-4-4-4h-9.48    c0.942-25.981,11.225-50.75,28.96-69.76l6.64,6.68c0.755,0.749,1.777,1.166,2.84,1.16c1.063,0.006,2.085-0.411,2.84-1.16    c1.551-1.56,1.551-4.08,0-5.64l-6.68-6.68c19.01-17.735,43.779-28.018,69.76-28.96v9.48c0,2.209,1.791,4,4,4c2.209,0,4-1.791,4-4    v-9.48c25.981,0.942,50.75,11.225,69.76,28.96l-6.68,6.68c-1.551,1.56-1.551,4.08,0,5.64c1.56,1.551,4.08,1.551,5.64,0l6.68-6.68    c17.706,19.021,27.96,43.789,28.88,69.76h-9.4c-2.209,0-4,1.791-4,4c0,2.209,1.791,4,4,4h9.4    C339.739,262.741,329.457,287.51,311.721,306.52z" fill="#212121" data-original="#000000" class=""></path>
	</g>
</g>
<g xmlns="http://www.w3.org/2000/svg">
	<g>
		<path d="M391.881,200.36c-2.209,0-4,1.791-4,4v7.68h-12.84c-5.386-36.894-24.873-70.261-54.36-93.08V4c0-2.209-1.791-4-4-4    h-168.56c-2.209,0-4,1.791-4,4v114.96c-13.139,10.194-24.424,22.575-33.36,36.6l-23.04-10.8c-0.985-0.411-2.094-0.411-3.08,0    c-0.985,0.36-1.79,1.093-2.24,2.04l-12.52,25.96c-0.965,1.987-0.137,4.38,1.85,5.346c0.01,0.005,0.02,0.01,0.03,0.014l23.28,11.08    c-9.063,28.442-9.063,58.998,0,87.44l-23.28,10.92c-1.917,0.951-2.745,3.243-1.88,5.2l12.52,26.16    c0.45,0.947,1.255,1.68,2.24,2.04c0.436,0.158,0.896,0.239,1.36,0.24c0.594-0.018,1.179-0.154,1.72-0.4l23.04-11    c8.936,14.025,20.221,26.406,33.36,36.6v114.96c0,2.209,1.791,4,4,4h168.56c2.209,0,4-1.791,4-4v-114.8    c29.487-22.819,48.974-56.186,54.36-93.08h12.84v7.68c0,2.209,1.791,4,4,4s4-1.791,4-4v-56.8    C395.881,202.151,394.091,200.36,391.881,200.36z M152.121,8h10.72v12.76c0,2.209,1.791,4,4,4c2.209,0,4-1.791,4-4V8h123.36v12.76    c0,2.209,1.791,4,4,4c2.209,0,4-1.791,4-4V8h10.48v105.12c-3.4-2.28-6.88-4.44-10.48-6.4V91c0-2.209-1.791-4-4-4    c-2.209,0-4,1.791-4,4v11.56c-39.038-18.505-84.322-18.505-123.36,0V91c0-2.209-1.791-4-4-4c-2.209,0-4,1.791-4,4v15.56    c-3.68,2.04-7.28,4-10.72,6.56V8z M78.841,172.44l9.04-18.92l18.76,8.96c-3.446,6.1-6.428,12.452-8.92,19L78.841,172.44z     M87.881,312l-9.04-18.92l18.88-9.04c2.492,6.548,5.474,12.9,8.92,19L87.881,312z M312.681,457.52h-10.48v-12.56    c0-2.209-1.791-4-4-4c-2.209,0-4,1.791-4,4v12.56h-123.36v-12.56c0-2.209-1.791-4-4-4c-2.209,0-4,1.791-4,4v12.56h-10.72V352.4    c3.44,2.36,7.04,4.52,10.72,6.56v15.56c0,2.209,1.791,4,4,4c2.209,0,4-1.791,4-4v-11.44c39.038,18.505,84.322,18.505,123.36,0    v11.56c0,2.209,1.791,4,4,4c2.209,0,4-1.791,4-4V358.8c3.6-1.96,7.08-4,10.48-6.4L312.681,457.52z M232.401,368.76    c-75.111-0.155-135.874-61.169-135.72-136.28c0.155-75.111,61.169-135.874,136.28-135.72    c75.001,0.154,135.72,60.998,135.72,135.999C368.505,307.907,307.549,368.738,232.401,368.76z M387.961,245.48h-12    c0.36-4.2,0.6-8.44,0.6-12.72c0-4.28-0.24-8.52-0.6-12.72h12V245.48z" fill="#212121" data-original="#000000" class=""></path>
	</g>
</g>
<g xmlns="http://www.w3.org/2000/svg">
	<g>
		<path d="M166.841,43.52c-2.209,0-4,1.791-4,4v16.56c0,2.209,1.791,4,4,4c2.209,0,4-1.791,4-4V47.52    C170.841,45.311,169.051,43.52,166.841,43.52z" fill="#212121" data-original="#000000" class=""></path>
	</g>
</g>
<g xmlns="http://www.w3.org/2000/svg">
	<g>
		<path d="M166.841,397.44c-2.209,0-4,1.791-4,4V418c0,2.209,1.791,4,4,4c2.209,0,4-1.791,4-4v-16.56    C170.841,399.231,169.051,397.44,166.841,397.44z" fill="#212121" data-original="#000000" class=""></path>
	</g>
</g>
<g xmlns="http://www.w3.org/2000/svg">
	<g>
		<path d="M298.201,43.52c-2.209,0-4,1.791-4,4v16.56c0,2.209,1.791,4,4,4c2.209,0,4-1.791,4-4V47.52    C302.201,45.311,300.411,43.52,298.201,43.52z" fill="#212121" data-original="#000000" class=""></path>
	</g>
</g>
<g xmlns="http://www.w3.org/2000/svg">
	<g>
		<path d="M298.201,397.44c-2.209,0-4,1.791-4,4V418c0,2.209,1.791,4,4,4c2.209,0,4-1.791,4-4v-16.56    C302.201,399.231,300.411,397.44,298.201,397.44z" fill="#212121" data-original="#000000" class=""></path>
	</g>
</g>
<g xmlns="http://www.w3.org/2000/svg">
</g>
<g xmlns="http://www.w3.org/2000/svg">
</g>
<g xmlns="http://www.w3.org/2000/svg">
</g>
<g xmlns="http://www.w3.org/2000/svg">
</g>
<g xmlns="http://www.w3.org/2000/svg">
</g>
<g xmlns="http://www.w3.org/2000/svg">
</g>
<g xmlns="http://www.w3.org/2000/svg">
</g>
<g xmlns="http://www.w3.org/2000/svg">
</g>
<g xmlns="http://www.w3.org/2000/svg">
</g>
<g xmlns="http://www.w3.org/2000/svg">
</g>
<g xmlns="http://www.w3.org/2000/svg">
</g>
<g xmlns="http://www.w3.org/2000/svg">
</g>
<g xmlns="http://www.w3.org/2000/svg">
</g>
<g xmlns="http://www.w3.org/2000/svg">
</g>
<g xmlns="http://www.w3.org/2000/svg">
</g>
</g></svg>