<svg xmlns="http://www.w3.org/2000/svg" version="1.1" xmlns:xlink="http://www.w3.org/1999/xlink" xmlns:svgjs="http://svgjs.com/svgjs" width="512" height="512" x="0" y="0" viewBox="0 0 478.64 478.64" style="enable-background:new 0 0 512 512" xml:space="preserve" class=""><g transform="matrix(0.6,0,0,0.6,95.72800285816194,95.72796630859375)">
<g xmlns="http://www.w3.org/2000/svg">
	<g>
		<path d="M422.04,330.115c-1.9-1.126-4.353-0.5-5.48,1.4c-8.627,14.441-21.372,25.974-36.6,33.12    c-2.01,0.916-2.898,3.288-1.982,5.298c0.653,1.433,2.087,2.35,3.662,2.342c0.579,0.003,1.153-0.12,1.68-0.36    c16.668-7.83,30.602-20.483,40-36.32C424.468,333.726,423.897,331.282,422.04,330.115z" fill="#212121" data-original="#000000" class=""></path>
	</g>
</g>
<g xmlns="http://www.w3.org/2000/svg">
	<g>
		<path d="M100.52,364.635c-15.242-7.125-27.992-18.664-36.6-33.12c-0.91-2.013-3.279-2.908-5.292-1.998    c-2.013,0.91-2.907,3.279-1.998,5.292c0.112,0.248,0.25,0.485,0.41,0.705c9.413,15.825,23.343,28.473,40,36.32    c0.53,0.233,1.101,0.356,1.68,0.36c1.562,0.004,2.984-0.902,3.64-2.32C103.257,367.918,102.444,365.602,100.52,364.635z" fill="#212121" data-original="#000000" class=""></path>
	</g>
</g>
<g xmlns="http://www.w3.org/2000/svg">
	<g>
		<path d="M477.72,236.995l-0.24-0.32l-0.8-0.96c-0.303-0.346-0.67-0.632-1.08-0.84c-1.24-0.68-2.56-1.32-4-1.96L337.08,83.835    c-8.038-8.904-21.773-9.606-30.677-1.567c-5.052,4.561-7.674,11.227-7.083,18.007l3.2,36.44c0.188,2.209,2.131,3.848,4.34,3.66    c2.209-0.188,3.848-2.131,3.66-4.34l-3.2-36.44c-0.77-7.538,4.716-14.273,12.254-15.044c4.437-0.453,8.818,1.279,11.746,4.644    l124.52,138.08c-38.52-10.64-98.32-11.28-112-11.28c-18.765-0.464-37.528,0.983-56,4.32c-2.8,0.6-5.96,1.32-9.4,2.16    c-12.768,3.526-25.889,5.619-39.12,6.24c-13.31-0.59-26.513-2.67-39.36-6.2c-3.44-0.84-6.6-1.56-9.4-2.16    c-18.472-3.337-37.235-4.784-56-4.32c-13.52,0-73.32,0.64-112,11.28l124.96-138.12c4.973-5.717,13.64-6.319,19.356-1.346    c3.365,2.928,5.097,7.309,4.644,11.746l-3.2,36.44c-0.188,2.209,1.451,4.152,3.66,4.34c2.209,0.188,4.152-1.451,4.34-3.66    l3.2-36.44c1.041-11.95-7.802-22.482-19.753-23.523c-6.781-0.591-13.446,2.031-18.007,7.083L7,232.915    c-1.4,0.64-2.72,1.28-3.96,1.96c-0.41,0.208-0.777,0.494-1.08,0.84c-0.29,0.3-0.557,0.621-0.8,0.96l-0.24,0.32    c-0.588,0.709-0.913,1.599-0.92,2.52v12.96c0.004,1.03,0.405,2.018,1.12,2.76l1.36,1.36l1.6,1.56    c6.84,6.48,16.2,15.32,16.52,39.16c0.422,29.181,12.696,56.935,34,76.88c19.177,17.892,44.452,27.805,70.68,27.72    c2.12,0,4.28,0,6.4,0c45.04-2.68,80.68-35.24,90.76-82.96c1.562-7.512,2.327-15.168,2.28-22.84c0-12,7.56-17.72,14.6-17.72    c3.741-0.011,7.324,1.506,9.92,4.2c3.262,3.725,4.941,8.576,4.68,13.52c-0.047,7.672,0.718,15.328,2.28,22.84    c10.08,47.56,45.72,80.32,90.76,82.8c28.395,1.837,56.287-8.136,77.08-27.56c21.289-19.956,33.56-47.703,34-76.88    c0.32-24,9.68-32.68,16.52-39.16l1.6-1.56l1.36-1.36c0.715-0.742,1.116-1.73,1.12-2.76v-12.96    C478.633,238.594,478.308,237.704,477.72,236.995z M470.64,250.995l-1.56,1.48c-6.96,6.6-18.64,17.64-19,44.84    c-0.369,26.996-11.722,52.677-31.44,71.12c-19.266,17.912-45.073,27.074-71.32,25.32c-41.24-2.48-73.96-32.52-83.32-76.6    c-1.434-6.974-2.131-14.08-2.08-21.2c0-16.88-11.36-25.72-22.6-25.72c-11.24,0-22.6,9.04-22.6,25.72    c0.051,7.12-0.646,14.226-2.08,21.2c-9.36,44.08-42.08,74.12-83.32,76.6c-26.226,1.698-51.988-7.507-71.2-25.44    c-19.718-18.443-31.071-44.124-31.44-71.12c-0.36-27.2-12-38.24-19-44.84l-1.52-1.48v-9.6c32.72-16.76,117.04-17.24,126.64-17.24    c18.134-0.452,36.268,0.942,54.12,4.16c2.76,0.56,5.84,1.28,9.16,2.08c13.458,3.704,27.294,5.865,41.24,6.44    c13.946-0.576,27.782-2.736,41.24-6.44c3.32-0.8,6.44-1.52,9.16-2.08c17.91-3.175,36.098-4.516,54.28-4    c9.6,0,93.92,0.48,126.64,17.24V250.995z" fill="#212121" data-original="#000000" class=""></path>
	</g>
</g>
<g xmlns="http://www.w3.org/2000/svg">
	<g>
		<path d="M188.96,254.395c-7.757-5.495-16.685-9.11-26.08-10.56c-28.28-4.28-62.44-2.48-107.48,5.68    c-2.175,0.385-3.626,2.461-3.241,4.637c0,0.001,0,0.002,0.001,0.003c0.364,2.179,2.426,3.65,4.605,3.286    c0.012-0.002,0.024-0.004,0.035-0.006c44-8,77.44-9.8,104.84-5.68c7.986,1.299,15.59,4.33,22.28,8.88    c10.04,8,12.88,21.8,9.44,45.76c-0.31,2.173,1.189,4.191,3.36,4.52h0.6c1.995,0.023,3.701-1.428,4-3.4    C203.88,289.475,204.84,267.155,188.96,254.395z" fill="#212121" data-original="#000000" class=""></path>
	</g>
</g>
<g xmlns="http://www.w3.org/2000/svg">
	<g>
		<path d="M423.283,249.596c-0.001,0-0.002,0-0.003-0.001c-45.04-8-79.2-9.96-107.48-5.68c-9.395,1.45-18.323,5.065-26.08,10.56    c-16,12.76-14.92,35.08-12.36,53.12c0.315,1.941,1.994,3.366,3.96,3.36h0.6c2.171-0.329,3.67-2.347,3.36-4.52    c-3.44-24-0.6-37.64,9.44-45.76c6.69-4.55,14.294-7.581,22.28-8.88c27.4-4,60.72-2.32,104.84,5.68    c2.171,0.409,4.262-1.02,4.671-3.191c0.003-0.016,0.006-0.033,0.009-0.049C426.907,252.06,425.458,249.983,423.283,249.596z" fill="#212121" data-original="#000000" class=""></path>
	</g>
</g>
<g xmlns="http://www.w3.org/2000/svg">
	<g>
		<path d="M141.303,295.578c-0.008-0.008-0.015-0.016-0.023-0.023c-1.56-1.551-4.08-1.551-5.64,0l-21.36,21.36    c-1.557,1.568-1.549,4.103,0.02,5.66s4.103,1.549,5.66-0.02l21.32-21.32C142.849,299.679,142.859,297.147,141.303,295.578z" fill="#212121" data-original="#000000" class=""></path>
	</g>
</g>
<g xmlns="http://www.w3.org/2000/svg">
	<g>
		<path d="M136.22,275.295c-1.568-1.58-4.12-1.588-5.7-0.02l-43.2,43.2c-1.568,1.556-1.579,4.088-0.023,5.657    c0.008,0.008,0.015,0.016,0.023,0.023c0.745,0.739,1.751,1.156,2.8,1.16c1.091,0.028,2.146-0.391,2.92-1.16l43.16-43.16    C137.78,279.427,137.789,276.875,136.22,275.295z" fill="#212121" data-original="#000000" class=""></path>
	</g>
</g>
<g xmlns="http://www.w3.org/2000/svg">
	<g>
		<path d="M360.663,292.298c-0.008-0.008-0.015-0.016-0.023-0.023c-1.56-1.551-4.08-1.551-5.64,0l-21.32,21.32    c-1.568,1.556-1.579,4.088-0.023,5.657c0.008,0.008,0.015,0.016,0.023,0.023c0.742,0.715,1.73,1.116,2.76,1.12    c1.071,0.028,2.109-0.376,2.88-1.12l21.32-21.32C362.208,296.399,362.219,293.867,360.663,292.298z" fill="#212121" data-original="#000000" class=""></path>
	</g>
</g>
<g xmlns="http://www.w3.org/2000/svg">
	<g>
		<path d="M383.32,295.675c-1.556-1.568-4.088-1.579-5.657-0.023c-0.008,0.008-0.016,0.015-0.023,0.023l-43.28,43.12    c-1.568,1.556-1.579,4.088-0.023,5.657c0.008,0.008,0.015,0.016,0.023,0.023c0.755,0.749,1.777,1.166,2.84,1.16    c1.063,0.006,2.085-0.411,2.84-1.16l43.28-43.16C384.871,299.755,384.871,297.235,383.32,295.675z" fill="#212121" data-original="#000000" class=""></path>
	</g>
</g>
<g xmlns="http://www.w3.org/2000/svg">
</g>
<g xmlns="http://www.w3.org/2000/svg">
</g>
<g xmlns="http://www.w3.org/2000/svg">
</g>
<g xmlns="http://www.w3.org/2000/svg">
</g>
<g xmlns="http://www.w3.org/2000/svg">
</g>
<g xmlns="http://www.w3.org/2000/svg">
</g>
<g xmlns="http://www.w3.org/2000/svg">
</g>
<g xmlns="http://www.w3.org/2000/svg">
</g>
<g xmlns="http://www.w3.org/2000/svg">
</g>
<g xmlns="http://www.w3.org/2000/svg">
</g>
<g xmlns="http://www.w3.org/2000/svg">
</g>
<g xmlns="http://www.w3.org/2000/svg">
</g>
<g xmlns="http://www.w3.org/2000/svg">
</g>
<g xmlns="http://www.w3.org/2000/svg">
</g>
<g xmlns="http://www.w3.org/2000/svg">
</g>
</g></svg>