<svg xmlns="http://www.w3.org/2000/svg" version="1.1" xmlns:xlink="http://www.w3.org/1999/xlink" xmlns:svgjs="http://svgjs.com/svgjs" width="512" height="512" x="0" y="0" viewBox="0 0 481.522 481.522" style="enable-background:new 0 0 512 512" xml:space="preserve" class=""><g transform="matrix(0.6,0,0,0.6,96.30440578460693,96.30436096191406)">
<g xmlns="http://www.w3.org/2000/svg">
	<g>
		<path d="M327.528,234.93c-0.002-0.003-0.004-0.005-0.006-0.008c-2.728-3.98-5.665-7.812-8.8-11.48    c-1.585-1.538-4.118-1.5-5.656,0.085c-1.309,1.349-1.502,3.428-0.464,4.995c2.976,3.471,5.741,7.118,8.28,10.92    c0.745,1.102,1.99,1.762,3.32,1.76c0.802-0.01,1.582-0.261,2.24-0.72C328.275,239.249,328.761,236.763,327.528,234.93z" fill="#212121" data-original="#000000" class=""></path>
	</g>
</g>
<g xmlns="http://www.w3.org/2000/svg">
	<g>
		<path d="M291.002,199.442c-36.842-23.251-83.013-26.058-122.4-7.44c-2.024,0.885-2.948,3.243-2.064,5.267    c0.008,0.018,0.016,0.035,0.024,0.053c0.949,1.995,3.335,2.843,5.33,1.894c0.01-0.005,0.02-0.009,0.03-0.014    c36.931-17.458,80.225-14.817,114.76,7c0.644,0.416,1.394,0.638,2.16,0.64c2.209,0.029,4.024-1.737,4.053-3.946    C292.914,201.492,292.195,200.181,291.002,199.442z" fill="#212121" data-original="#000000" class=""></path>
	</g>
</g>
<g xmlns="http://www.w3.org/2000/svg">
	<g>
		<path d="M370.557,250.757c-16-42.473-49.522-75.995-91.995-91.995v-22.6c-0.018-13.105-9.959-24.066-23-25.36v-49    c0-2.209-1.791-4-4-4h-57.16c-2.209,0-4,1.791-4,4v17.16c-21.335-2.373-42.711,4.088-59.16,17.88c-13.08-21.4-50.8-24-85.4-5.44    c-15.857,8.116-29.182,20.43-38.52,35.6c-8.36,14.52-9.6,28.76-3.52,40c6.84,12.76,21.96,19.32,40,19.32    c16.168-0.338,32.011-4.607,46.16-12.44c15.88-8.074,29.244-20.345,38.64-35.48c6.96-12,8.88-24,5.88-34.16    c0.416-0.172,0.807-0.401,1.16-0.68c15.089-12.989,34.961-19.003,54.72-16.56v23.8c-13.05,1.276-23,12.248-23,25.36v22.6    C85.848,189.469,44.66,280.443,75.367,361.957s121.68,122.702,203.195,91.995S401.264,332.271,370.557,250.757z M121.722,134.402    c-8.611,13.867-20.854,25.113-35.4,32.52c-31.48,16.88-65.36,15.28-75.48-3.6c-4.72-8.84-3.52-20.32,3.4-32.32    c8.599-13.878,20.844-25.127,35.4-32.52c13.083-7.297,27.744-11.306,42.72-11.68c15.04,0,27.32,5.16,32.72,15.28    C129.842,110.882,128.642,122.362,121.722,134.402z M198.402,65.802h49.2v44.88h-49.2V65.802z M175.362,136.162    c0-9.654,7.826-17.48,17.48-17.48h60.24c9.66,0,17.498,7.82,17.52,17.48h-0.04v20c-30.977-9.801-64.223-9.801-95.2,0V136.162z     M307.14,429.708c-68.254,46.481-161.265,28.831-207.746-39.422S70.563,229.021,138.816,182.54    c0.009-0.006,0.017-0.012,0.026-0.018c67.524-46.607,160.046-29.651,206.654,37.874c0.359,0.52,0.714,1.042,1.066,1.566    C393.043,290.216,375.393,383.227,307.14,429.708z" fill="#212121" data-original="#000000" class=""></path>
	</g>
</g>
<g xmlns="http://www.w3.org/2000/svg">
	<g>
		<path d="M71.117,130.247c-1.214-1.636-3.328-2.328-5.275-1.725c-2.358,1.196-3.32,4.064-2.16,6.44c1.238,2.316,4.108,3.207,6.44,2    C72.251,135.383,72.696,132.376,71.117,130.247z" fill="#212121" data-original="#000000" class=""></path>
	</g>
</g>
<g xmlns="http://www.w3.org/2000/svg">
	<g>
		<path d="M99.452,116.877c-1.192-2.368-4.077-3.322-6.445-2.13c-2.368,1.192-3.322,4.077-2.13,6.445    c0.002,0.003,0.004,0.007,0.005,0.01c1.195,2.361,4.076,3.309,6.44,2.12C99.69,122.131,100.644,119.245,99.452,116.877z" fill="#212121" data-original="#000000" class=""></path>
	</g>
</g>
<g xmlns="http://www.w3.org/2000/svg">
	<g>
		<path d="M45.082,144.202c-1.195-2.361-4.076-3.309-6.44-2.12c-2.271,1.368-3.002,4.318-1.634,6.589    c1.218,2.022,3.726,2.858,5.914,1.971C45.28,149.446,46.242,146.578,45.082,144.202z" fill="#212121" data-original="#000000" class=""></path>
	</g>
</g>
<g xmlns="http://www.w3.org/2000/svg">
	<g>
		<path d="M430.878,108.526c-0.065-0.002-0.131-0.004-0.196-0.004c-3.003-0.023-5.473,2.358-5.56,5.36    c-0.11,3.069,2.288,5.646,5.356,5.756s5.646-2.288,5.756-5.356S433.947,108.636,430.878,108.526z" fill="#212121" data-original="#000000" class=""></path>
	</g>
</g>
<g xmlns="http://www.w3.org/2000/svg">
	<g>
		<path d="M475.962,62.322c-3.071,0-5.56,2.489-5.56,5.56c0,0.013,0,0.027,0,0.04c0,3.049,2.471,5.52,5.52,5.52    c0.013,0,0.027,0,0.04,0c3.071,0,5.56-2.489,5.56-5.56C481.522,64.811,479.032,62.322,475.962,62.322z" fill="#212121" data-original="#000000" class=""></path>
	</g>
</g>
<g xmlns="http://www.w3.org/2000/svg">
	<g>
		<path d="M454.722,188.522c0-3.071-2.489-5.56-5.56-5.56c-3.071,0-5.56,2.489-5.56,5.56c0,3.071,2.489,5.56,5.56,5.56    c0.013,0,0.027,0,0.04,0c3.049,0,5.52-2.471,5.52-5.52C454.722,188.549,454.722,188.536,454.722,188.522z" fill="#212121" data-original="#000000" class=""></path>
	</g>
</g>
<g xmlns="http://www.w3.org/2000/svg">
	<g>
		<path d="M279.322,33.562c-0.013,0-0.027,0-0.04,0c-3.049,0-5.52,2.471-5.52,5.52c0,0.013,0,0.027,0,0.04    c0,3.071,2.489,5.56,5.56,5.56c3.071,0,5.56-2.489,5.56-5.56C284.882,36.051,282.393,33.562,279.322,33.562z" fill="#212121" data-original="#000000" class=""></path>
	</g>
</g>
<g xmlns="http://www.w3.org/2000/svg">
	<g>
		<path d="M320.002,90.282c-0.013,0-0.027,0-0.04,0c-3.055,0-5.538,2.465-5.56,5.52c-0.022,3.071,2.449,5.578,5.52,5.6    c3.071,0.022,5.578-2.449,5.6-5.52S323.072,90.304,320.002,90.282z" fill="#212121" data-original="#000000" class=""></path>
	</g>
</g>
<g xmlns="http://www.w3.org/2000/svg">
	<g>
		<path d="M366.962,124.242c-2.209,0-4,1.791-4,4v9.32c0,2.209,1.791,4,4,4c2.209,0,4-1.791,4-4v-9.32    C370.962,126.033,369.171,124.242,366.962,124.242z" fill="#212121" data-original="#000000" class=""></path>
	</g>
</g>
<g xmlns="http://www.w3.org/2000/svg">
	<g>
		<path d="M366.962,161.482c-2.209,0-4,1.791-4,4v9.28c0,2.209,1.791,4,4,4c2.209,0,4-1.791,4-4v-9.28    C370.962,163.273,369.171,161.482,366.962,161.482z" fill="#212121" data-original="#000000" class=""></path>
	</g>
</g>
<g xmlns="http://www.w3.org/2000/svg">
	<g>
		<path d="M390.202,147.522h-9.28c-2.209,0-4,1.791-4,4c0,2.209,1.791,4,4,4h9.28c2.209,0,4-1.791,4-4    C394.202,149.313,392.411,147.522,390.202,147.522z" fill="#212121" data-original="#000000" class=""></path>
	</g>
</g>
<g xmlns="http://www.w3.org/2000/svg">
	<g>
		<path d="M353.002,147.522h-9.28c-2.209,0-4,1.791-4,4c0,2.209,1.791,4,4,4h9.28c2.209,0,4-1.791,4-4    C357.002,149.313,355.211,147.522,353.002,147.522z" fill="#212121" data-original="#000000" class=""></path>
	</g>
</g>
<g xmlns="http://www.w3.org/2000/svg">
	<g>
		<path d="M404.162,17.402c-2.209,0-4,1.791-4,4v9.28c0,2.209,1.791,4,4,4c2.209,0,4-1.791,4-4v-9.28    C408.162,19.193,406.371,17.402,404.162,17.402z" fill="#212121" data-original="#000000" class=""></path>
	</g>
</g>
<g xmlns="http://www.w3.org/2000/svg">
	<g>
		<path d="M404.162,54.602c-2.209,0-4,1.791-4,4v9.32c0,2.209,1.791,4,4,4c2.209,0,4-1.791,4-4v-9.32    C408.162,56.393,406.371,54.602,404.162,54.602z" fill="#212121" data-original="#000000" class=""></path>
	</g>
</g>
<g xmlns="http://www.w3.org/2000/svg">
	<g>
		<path d="M427.442,40.522h-9.28c-2.209,0-4,1.791-4,4s1.791,4,4,4h9.28c2.209,0,4-1.791,4-4S429.651,40.522,427.442,40.522z" fill="#212121" data-original="#000000" class=""></path>
	</g>
</g>
<g xmlns="http://www.w3.org/2000/svg">
	<g>
		<path d="M390.202,40.522h-9.28c-2.209,0-4,1.791-4,4s1.791,4,4,4h9.28c2.209,0,4-1.791,4-4S392.411,40.522,390.202,40.522z" fill="#212121" data-original="#000000" class=""></path>
	</g>
</g>
<g xmlns="http://www.w3.org/2000/svg">
	<g>
		<path d="M346.042,274.122c-0.532-2.084-2.617-3.374-4.72-2.92c-3.386,0.778-6.846,1.18-10.32,1.2    c-12.16-0.301-23.872-4.651-33.28-12.36c-27.04-20.44-56.84-20.44-83.88,0.2c-21.52,16.28-45.24,16.28-66.56,0    c-9.583-7.603-20.936-12.653-33-14.68c-1.643-0.188-3.233,0.654-4,2.12c-9.476,18.021-14.419,38.079-14.4,58.44    c0.029,70.206,56.966,127.097,127.172,127.068s127.097-56.966,127.068-127.172C350.118,295.256,348.747,284.538,346.042,274.122z     M248.956,422.191c-64.163,14.432-127.877-25.883-142.309-90.046c-5.93-26.366-2.716-53.965,9.115-78.262    c9.668,2.159,18.722,6.48,26.48,12.64c24.36,18.56,52,18.56,76.28,0c24.28-18.56,50.28-18.28,74.2,0    c10.833,8.82,24.313,13.75,38.28,14c2.678-0.025,5.352-0.239,8-0.64C353.434,344.045,313.119,407.759,248.956,422.191z" fill="#212121" data-original="#000000" class=""></path>
	</g>
</g>
<g xmlns="http://www.w3.org/2000/svg">
</g>
<g xmlns="http://www.w3.org/2000/svg">
</g>
<g xmlns="http://www.w3.org/2000/svg">
</g>
<g xmlns="http://www.w3.org/2000/svg">
</g>
<g xmlns="http://www.w3.org/2000/svg">
</g>
<g xmlns="http://www.w3.org/2000/svg">
</g>
<g xmlns="http://www.w3.org/2000/svg">
</g>
<g xmlns="http://www.w3.org/2000/svg">
</g>
<g xmlns="http://www.w3.org/2000/svg">
</g>
<g xmlns="http://www.w3.org/2000/svg">
</g>
<g xmlns="http://www.w3.org/2000/svg">
</g>
<g xmlns="http://www.w3.org/2000/svg">
</g>
<g xmlns="http://www.w3.org/2000/svg">
</g>
<g xmlns="http://www.w3.org/2000/svg">
</g>
<g xmlns="http://www.w3.org/2000/svg">
</g>
</g></svg>