<svg xmlns="http://www.w3.org/2000/svg" version="1.1" xmlns:xlink="http://www.w3.org/1999/xlink" xmlns:svgjs="http://svgjs.com/svgjs" width="512" height="512" x="0" y="0" viewBox="0 0 476.348 476.348" style="enable-background:new 0 0 512 512" xml:space="preserve" class=""><g transform="matrix(0.6,0,0,0.6,95.2698133468628,95.26960296630861)">
<g xmlns="http://www.w3.org/2000/svg">
	<g>
		<path d="M446.508,364.694c-47.56-34.6-90.72-40.8-95.36-41.4c-78.64-20.92-249.88-285.52-251.6-288    c-0.734-1.145-2-1.838-3.36-1.84h-18.52h-0.76l-0.76,0.28c0,0-0.2,0-0.28,0c-42.64,27.08-66.56,59.64-73.12,99.8    c-6.64,40.88-0.36,55.36,9.4,61.8c9.035,25.787,16.265,52.17,21.64,78.96c15.36,80.8,23.28,164,23.36,164.6    c0.187,2.068,1.924,3.648,4,3.64h25.96c2.209,0,4-1.791,4-4l0.44-185.24c39.04,41.92,71.48,95.6,82.2,126.76    c8,22.8,25.92,40.88,52.2,52.2c12.056,5.221,24.8,8.683,37.84,10.28c4,0,70.88,0.36,122.72,0.36c26.8,0,49.64,0,57.76-0.36    c14.103-0.588,26.339-9.916,30.64-23.36C478.148,408.854,478.588,388.094,446.508,364.694z M94.148,41.294    c15.36,23.88,154.16,235.48,237.12,282.12c-10.08,0-22.76,0-34.88,0c-22.48-0.4-35.32-12-62.56-46.64    c-24.32-31.12-127.68-201.12-148.72-235.48H94.148z M83.148,434.534h-18.36c-0.32-2.96-0.8-7.64-1.48-13.72h18.56    c0.436-0.018,0.867-0.099,1.28-0.24V434.534z M83.548,246.494v0.04l-0.4,166.6c-0.405-0.173-0.84-0.268-1.28-0.28h-18.52    c-0.306-0.035-0.614-0.035-0.92,0c-3.52-30.96-10.48-86.08-20.8-140.24c-5.032-24.556-11.537-48.786-19.48-72.56    c20.68,8.88,41.8,25.32,61.52,45.24C83.582,245.688,83.542,246.091,83.548,246.494z M443.988,434.534c-23.56,0.8-176.6,0-179.76,0    c-15.148-2.066-29.829-6.72-43.4-13.76h244.8C461.329,428.841,453.116,434.063,443.988,434.534z M468.068,412.814h-0.08h-259.24    h-0.6c-12.401-8.783-21.777-21.192-26.84-35.52c-17.52-50.8-91.56-160-160-186.44h-0.44c-6.36-2.32-18.24-6.6-10.2-56    c5.96-36.68,27.6-66.8,66.04-92c17.16,28.28,125.44,206.08,150.84,238.68c26.28,33.44,41.6,49.24,68.68,49.72    c24,0.4,50.88,0,53.88,0s45.96,6.6,91.68,40C460.388,384.734,469.708,399.654,468.068,412.814z" fill="#212121" data-original="#000000" class=""></path>
	</g>
</g>
<g xmlns="http://www.w3.org/2000/svg">
	<g>
		<path d="M63.788,80.894c-1.403-1.712-3.928-1.963-5.64-0.56c-18.6,15.007-29.468,37.581-29.6,61.48c0,2.209,1.791,4,4,4    c2.209,0,4-1.791,4-4c0.132-21.5,9.93-41.8,26.68-55.28C64.94,85.131,65.19,82.606,63.788,80.894z" fill="#212121" data-original="#000000" class=""></path>
	</g>
</g>
<g xmlns="http://www.w3.org/2000/svg">
</g>
<g xmlns="http://www.w3.org/2000/svg">
</g>
<g xmlns="http://www.w3.org/2000/svg">
</g>
<g xmlns="http://www.w3.org/2000/svg">
</g>
<g xmlns="http://www.w3.org/2000/svg">
</g>
<g xmlns="http://www.w3.org/2000/svg">
</g>
<g xmlns="http://www.w3.org/2000/svg">
</g>
<g xmlns="http://www.w3.org/2000/svg">
</g>
<g xmlns="http://www.w3.org/2000/svg">
</g>
<g xmlns="http://www.w3.org/2000/svg">
</g>
<g xmlns="http://www.w3.org/2000/svg">
</g>
<g xmlns="http://www.w3.org/2000/svg">
</g>
<g xmlns="http://www.w3.org/2000/svg">
</g>
<g xmlns="http://www.w3.org/2000/svg">
</g>
<g xmlns="http://www.w3.org/2000/svg">
</g>
</g></svg>