<svg xmlns="http://www.w3.org/2000/svg" version="1.1" xmlns:xlink="http://www.w3.org/1999/xlink" xmlns:svgjs="http://svgjs.com/svgjs" width="512" height="512" x="0" y="0" viewBox="0 0 479.72 479.72" style="enable-background:new 0 0 512 512" xml:space="preserve" class=""><g transform="matrix(0.6,0,0,0.6,95.943994140625,95.94412231445327)">
<g xmlns="http://www.w3.org/2000/svg">
	<g>
		<path d="M146.44,276.728c-0.329-2.118-0.503-4.257-0.52-6.4c-0.004-2.209,0.156-4.415,0.48-6.6c0.267-2.118-1.177-4.072-3.28-4.44    c-2.18-0.359-4.238,1.118-4.596,3.297c-0.001,0.008-0.002,0.015-0.004,0.023c-0.408,2.527-0.622,5.081-0.64,7.64    c0.018,2.573,0.232,5.14,0.64,7.68c0.317,1.956,2.018,3.385,4,3.36h0.64C145.316,280.92,146.777,278.889,146.44,276.728z" fill="#212121" data-original="#000000" class=""></path>
	</g>
</g>
<g xmlns="http://www.w3.org/2000/svg">
	<g>
		<path d="M305.84,254.968c-8.439,0-15.28,6.841-15.28,15.28s6.841,15.28,15.28,15.28s15.28-6.841,15.28-15.28    C321.098,261.818,314.27,254.99,305.84,254.968z M305.84,277.528c-4.021,0-7.28-3.259-7.28-7.28s3.259-7.28,7.28-7.28    s7.28,3.259,7.28,7.28C313.098,274.259,309.852,277.506,305.84,277.528z" fill="#212121" data-original="#000000" class=""></path>
	</g>
</g>
<g xmlns="http://www.w3.org/2000/svg">
	<g>
		<path d="M88.2,254.968c-8.439,0-15.28,6.841-15.28,15.28s6.841,15.28,15.28,15.28s15.28-6.841,15.28-15.28    C103.458,261.818,96.63,254.99,88.2,254.968z M88.2,277.528c-4.021,0-7.28-3.259-7.28-7.28s3.259-7.28,7.28-7.28    s7.28,3.259,7.28,7.28C95.458,274.259,92.212,277.506,88.2,277.528z" fill="#212121" data-original="#000000" class=""></path>
	</g>
</g>
<g xmlns="http://www.w3.org/2000/svg">
	<g>
		<path d="M475.72,217.368h-8.56l-7.16-77.64c-0.098-1.062-0.616-2.042-1.44-2.72c-0.813-0.682-1.863-1.013-2.92-0.92l-435.32,40.4    c-2.198,0.211-3.809,2.162-3.6,4.36l3.28,36.6H4c-2.209,0-4,1.791-4,4v97.76c0,2.209,1.791,4,4,4h121.88    c2.535,6.45,5.641,12.662,9.28,18.56c0.732,1.172,2.018,1.883,3.4,1.88h107.92c2.209,0,4-1.791,4-4v-16.52h101.88v7.4    c0,2.209,1.791,4,4,4h18.16c2.209,0,4-1.791,4-4v-7.4h97.2c2.209,0,4-1.791,4-4l0-97.76    C479.72,219.159,477.929,217.368,475.72,217.368z M123.48,315.208H8.4v-89.76h115.08    C113.961,254.611,113.961,286.045,123.48,315.208z M242.48,335.488H141.2c-3.296-5.611-6.094-11.5-8.36-17.6l-0.24-0.6    c-5.576-15.055-8.421-30.985-8.4-47.04c-0.211-22.868,5.656-45.383,17-65.24h101.28v12.36h-61.24c-2.209,0-4,1.791-4,4v44.88    h-16.92c-2.209,0-4,1.791-4,4c0,2.209,1.791,4,4,4h16.92v44.88c0,2.209,1.791,4,4,4h61.24V335.488z M352.36,315.128H185.24v-40.88    H211c2.209,8.145,10.603,12.956,18.747,10.747c8.145-2.209,12.956-10.603,10.747-18.747c-2.209-8.145-10.603-12.956-18.747-10.747    c-5.236,1.42-9.327,5.511-10.747,10.747h-25.76v-40.88h167.12V315.128z M218.4,270.248c0-4.021,3.259-7.28,7.28-7.28    c4.021,0,7.28,3.259,7.28,7.28s-3.26,7.28-7.28,7.28c-0.013,0-0.027,0-0.04,0C221.635,277.506,218.4,274.253,218.4,270.248z     M370.4,326.528h-10.04v-112.56h10.16L370.4,326.528z M374.52,205.968h-18.16c-2.209,0-4,1.791-4,4v7.4H250.48v-16.36    c0-2.209-1.791-4-4-4H138.96c-1.382-0.003-2.668,0.708-3.4,1.88c-3.601,5.857-6.693,12.013-9.24,18.4L28,217.408l-2.92-33.32    l427.24-39.76l6.8,73.04h-80.6v-7.4C378.52,207.759,376.729,205.968,374.52,205.968z M378.52,315.128l-0.12-89.76h32.44    l37.56,44.88l-37.56,44.88H378.52z M471.6,315.128h-50.2l35.4-42.32c1.235-1.483,1.235-3.637,0-5.12l-35.4-42.32h50.32    L471.6,315.128z" fill="#212121" data-original="#000000" class=""></path>
	</g>
</g>
<g xmlns="http://www.w3.org/2000/svg">
	<g>
		<path d="M432.92,162.608l-12.48,1.16c-2.209,0.099-3.919,1.971-3.82,4.18c0.099,2.209,1.971,3.919,4.18,3.82v-0.04h0.4l12.48-1.16    c2.198-0.211,3.809-2.162,3.6-4.36C437.069,164.01,435.118,162.399,432.92,162.608z" fill="#212121" data-original="#000000" class=""></path>
	</g>
</g>
<g xmlns="http://www.w3.org/2000/svg">
	<g>
		<path d="M388.44,166.488l-56,5.2c-2.209,0.11-3.91,1.991-3.8,4.2c0.11,2.209,1.991,3.91,4.2,3.8l0,0.04h0.36l56-5.24    c2.209-0.21,3.83-2.171,3.62-4.38C392.61,167.898,390.649,166.278,388.44,166.488z" fill="#212121" data-original="#000000" class=""></path>
	</g>
</g>
<g xmlns="http://www.w3.org/2000/svg">
</g>
<g xmlns="http://www.w3.org/2000/svg">
</g>
<g xmlns="http://www.w3.org/2000/svg">
</g>
<g xmlns="http://www.w3.org/2000/svg">
</g>
<g xmlns="http://www.w3.org/2000/svg">
</g>
<g xmlns="http://www.w3.org/2000/svg">
</g>
<g xmlns="http://www.w3.org/2000/svg">
</g>
<g xmlns="http://www.w3.org/2000/svg">
</g>
<g xmlns="http://www.w3.org/2000/svg">
</g>
<g xmlns="http://www.w3.org/2000/svg">
</g>
<g xmlns="http://www.w3.org/2000/svg">
</g>
<g xmlns="http://www.w3.org/2000/svg">
</g>
<g xmlns="http://www.w3.org/2000/svg">
</g>
<g xmlns="http://www.w3.org/2000/svg">
</g>
<g xmlns="http://www.w3.org/2000/svg">
</g>
</g></svg>