<svg xmlns="http://www.w3.org/2000/svg" version="1.1" xmlns:xlink="http://www.w3.org/1999/xlink" xmlns:svgjs="http://svgjs.com/svgjs" width="512" height="512" x="0" y="0" viewBox="0 0 484.661 484.661" style="enable-background:new 0 0 512 512" xml:space="preserve" class=""><g transform="matrix(0.6000000000000001,0,0,0.6000000000000001,96.93226013183602,96.93208923339836)">
<g xmlns="http://www.w3.org/2000/svg">
	<g>
		<path d="M421.41,280.821c5.782-10.232,2.174-23.214-8.058-28.996c-8.501-4.804-19.18-3.206-25.902,3.876l-24,25.08v-135.6    c-0.297-11.042-9.49-19.752-20.531-19.454c-3.993,0.108-7.862,1.408-11.109,3.734v-5.8c-1.558-10.935-11.686-18.537-22.621-16.979    c-8.805,1.255-15.724,8.173-16.979,16.979v5.92c-3.462-2.596-7.673-4-12-4c-10.753,0.109-19.419,8.846-19.44,19.6v16.72    c-1.563-1.132-3.272-2.047-5.08-2.72v-88c-0.276-11.042-9.451-19.77-20.493-19.494c-4.006,0.1-7.889,1.401-11.147,3.734v-16.72    c-0.297-11.042-9.49-19.752-20.531-19.454c-3.993,0.108-7.862,1.408-11.109,3.734v-5.8c-1.558-10.935-11.686-18.537-22.621-16.979    c-8.805,1.255-15.724,8.173-16.979,16.979v5.88c-3.462-2.596-7.673-4-12-4c-10.822,0.022-19.596,8.778-19.64,19.6v135.68    l-23.96-25.16c-7.099-7.431-18.494-8.727-27.08-3.08c-9.363,6.137-12.385,18.47-6.92,28.24l62.16,112.92    c1.791,3.254,2.412,7.023,1.76,10.68l-8.72,75.92c-0.138,1.129,0.211,2.264,0.96,3.12c0.758,0.863,1.851,1.359,3,1.36h114.64    c0.56,3.16,0.92,5.24,1,5.6c1.446,9.366,1.351,18.905-0.28,28.24l-7.72,68c-0.127,1.135,0.236,2.271,1,3.12    c0.758,0.863,1.851,1.359,3,1.36h128.4c1.149-0.001,2.242-0.497,3-1.36c0.749-0.856,1.098-1.991,0.96-3.12l-8.88-76    c-0.612-3.596,0.023-7.294,1.8-10.48L421.41,280.821z M235.53,370.461h-108.8l8.32-71.28c0.893-5.379-0.051-10.903-2.68-15.68    l-61.96-113.04c-3.569-6.407-1.268-14.495,5.139-18.064c5.281-2.942,11.883-1.945,16.061,2.424h-0.2l52,54.36    c1.643,1.477,4.172,1.343,5.649-0.299c1.324-1.473,1.372-3.693,0.111-5.221l-20-20.92v-144c1.144-6.528,7.363-10.893,13.891-9.749    c4.979,0.872,8.877,4.771,9.749,9.749v90.44c0,2.209,1.791,4,4,4c2.209,0,4-1.791,4-4v-112c1.205-6.517,7.465-10.823,13.982-9.618    c4.889,0.904,8.714,4.729,9.618,9.618v112c0,2.209,1.791,4,4,4c2.209,0,4-1.791,4-4v-90.48c1.144-6.528,7.363-10.893,13.891-9.749    c4.979,0.872,8.877,4.771,9.749,9.749v90.48c0,2.209,1.791,4,4,4c2.209,0,4-1.791,4-4v-58.08    c1.144-6.528,7.363-10.893,13.891-9.749c4.979,0.872,8.877,4.771,9.749,9.749v87c-10.386,0.552-18.532,9.12-18.56,19.52v136.2    c0,0,0,9.48,0,12.64C229.33,333.741,233.13,355.741,235.53,370.461z M349.77,405.381l8.32,71.48H238.41l7.24-63.68    c1.76-10.145,1.841-20.509,0.24-30.68c0-0.48-8.44-46-8.76-56.4c0-3.08,0-12.32,0-12.36v-136.12    c1.144-6.528,7.363-10.893,13.891-9.749c4.979,0.872,8.877,4.771,9.749,9.749v57.88c0,2.209,1.791,4,4,4c2.209,0,4-1.791,4-4    v-90.32c1.144-6.528,7.363-10.893,13.891-9.749c4.979,0.872,8.877,4.771,9.749,9.749v90.32c0,2.209,1.791,4,4,4    c2.209,0,4-1.791,4-4v-112c1.205-6.517,7.465-10.823,13.982-9.618c4.889,0.904,8.714,4.729,9.618,9.618v112c0,2.209,1.791,4,4,4    c2.209,0,4-1.791,4-4v-90.32c1.144-6.528,7.363-10.893,13.891-9.749c4.979,0.872,8.877,4.771,9.749,9.749v144l-20,20.92    c-1.643,1.477-1.777,4.006-0.299,5.649c1.477,1.643,4.006,1.777,5.649,0.299c0.147-0.132,0.284-0.276,0.411-0.428l52-54.36    c5.002-5.364,13.405-5.658,18.769-0.656c4.53,4.224,5.539,11.019,2.431,16.376l-62.16,112.92    C349.845,394.614,348.901,400.067,349.77,405.381z" fill="#212121" data-original="#000000" class=""></path>
	</g>
</g>
<g xmlns="http://www.w3.org/2000/svg">
	<g>
		<path d="M338.41,456.741h-26.2c-2.209,0-4,1.791-4,4c0,2.209,1.791,4,4,4h26.2c2.209,0,4-1.791,4-4    C342.41,458.532,340.619,456.741,338.41,456.741z" fill="#212121" data-original="#000000" class=""></path>
	</g>
</g>
<g xmlns="http://www.w3.org/2000/svg">
	<g>
		<path d="M293.77,456.741h-2.24c-2.209,0-4,1.791-4,4c0,2.209,1.791,4,4,4h2.24c2.209,0,4-1.791,4-4    C297.77,458.532,295.979,456.741,293.77,456.741z" fill="#212121" data-original="#000000" class=""></path>
	</g>
</g>
<g xmlns="http://www.w3.org/2000/svg">
</g>
<g xmlns="http://www.w3.org/2000/svg">
</g>
<g xmlns="http://www.w3.org/2000/svg">
</g>
<g xmlns="http://www.w3.org/2000/svg">
</g>
<g xmlns="http://www.w3.org/2000/svg">
</g>
<g xmlns="http://www.w3.org/2000/svg">
</g>
<g xmlns="http://www.w3.org/2000/svg">
</g>
<g xmlns="http://www.w3.org/2000/svg">
</g>
<g xmlns="http://www.w3.org/2000/svg">
</g>
<g xmlns="http://www.w3.org/2000/svg">
</g>
<g xmlns="http://www.w3.org/2000/svg">
</g>
<g xmlns="http://www.w3.org/2000/svg">
</g>
<g xmlns="http://www.w3.org/2000/svg">
</g>
<g xmlns="http://www.w3.org/2000/svg">
</g>
<g xmlns="http://www.w3.org/2000/svg">
</g>
</g></svg>