<svg xmlns="http://www.w3.org/2000/svg" version="1.1" xmlns:xlink="http://www.w3.org/1999/xlink" xmlns:svgjs="http://svgjs.com/svgjs" width="512" height="512" x="0" y="0" viewBox="0 0 497.431 497.431" style="enable-background:new 0 0 512 512" xml:space="preserve" class=""><g transform="matrix(0.6,0,0,0.6,99.48610229492189,99.48614006042484)">
<g xmlns="http://www.w3.org/2000/svg">
	<g>
		<path d="M368.559,242.83c28-29.24,24-60.24,21.92-69.24c5.303-5.048,8.322-12.038,8.36-19.36c0.015-15.718-1.014-31.419-3.08-47    c-5.32-39.24-29.2-72.8-30.4-74.44c-9.88-18.32-38.88-25.4-47.6-27.12c-88-17.6-153.36,11.28-156,12.52    c-0.4,0.192-0.765,0.449-1.08,0.76c-1.44,1.48-23.12,24-28.76,39c-3.812,10.968-6.768,22.215-8.84,33.64    c-0.96,5.32-7.12,13.36-16.92,22.12c-4.962,4.334-7.733,10.654-7.56,17.24c0.56,12.88,8.24,34.08,41.32,62.12    c-1.389,2.765-2.321,5.737-2.76,8.8c-0.112,1.392,0.51,2.741,1.64,3.56l16.68,12.24c-1.237,2.612-1.866,5.47-1.84,8.36    c0.84,12.92,30.28,41.64,36,47.24c1.411,1.353,3.593,1.489,5.16,0.32c1.449-1.201,1.866-3.249,1-4.92    c-4.36-8.44-1.92-29.68,63.56-77.04c46.36-33.52,84.52-78.96,96.8-100.72c6.52-11.48,12.8-22.6,14.08-34.44    c8.755,16.218,14.706,33.799,17.6,52c2.025,15.209,3.027,30.537,3,45.88c-0.007,5.818-2.674,11.314-7.24,14.92    c-27.777,21.439-58.847,38.23-92,49.72c-67.04,24.08-92.88,49.08-93.92,59.76c-13.048,58.685-12.24,119.602,2.36,177.92    c0.494,2.007,2.436,3.308,4.48,3c11.275-1.478,22.708-1.262,33.92,0.64c17.349,2.55,34.967,2.712,52.36,0.48    c3.36-0.44,7.44-1.2,12-2.04c4.56-0.84,10.72-1.92,16.76-2.76l7.36,38.2c0.369,1.908,2.057,3.275,4,3.24    c41.76,0,54.96-23.2,55.48-24c0.536-0.981,0.638-2.141,0.28-3.2c0,0-7.24-21.88-26.6-94.76c-9.728-34.669-21.754-68.65-36-101.72    C341.021,266.88,356.217,256.317,368.559,242.83z M106.279,130.75c-0.072-4.183,1.716-8.183,4.88-10.92    c8-7.12,17.84-17.52,19.48-26.64c1.954-10.967,4.776-21.761,8.44-32.28c3.56-9.52,15.04-23.16,21.88-30.72    c9.305,39.4,29.891,75.234,59.24,103.12c-47.16,19.36-67.64,39.36-76.56,52.84C112.159,159.07,106.679,139.87,106.279,130.75z     M213.479,114.51c21.797-4.425,44.084-5.945,66.28-4.52c-2.64,2-5.28,3.92-7.96,5.88h-0.32c-16.24,4.8-30.52,9.36-42.92,14.2    c-0.2-0.2-0.32-0.44-0.52-0.64C222.854,124.791,217.99,119.807,213.479,114.51z M145.319,200.67c2.6-8.44,18.24-41.32,105.76-70.2    l-2.44,1.72c-9.24,6.4-17.96,12.48-25.72,18.24c-32,23.72-54.08,44.88-64,60.24L145.319,200.67z M349.199,86.95l0.12-0.04    c-11.72,20.44-49.76,65.76-94.68,98.28c-43.16,31.24-65.64,55.48-68.08,74.04c-12-12.52-24.88-27.76-25.24-33.6    c-0.6-8.84,20-34.12,66.4-68.72c7.64-5.68,16.28-11.72,25.48-18.12c44-30.56,98.48-68.6,90.24-106.16    c-0.464-2.209-2.631-3.624-4.84-3.16c-2.209,0.464-3.624,2.631-3.16,4.84c5.12,22.36-17.84,46.36-46.2,68.44    c-27.322-2.749-54.908-1.129-81.72,4.8c-9.853-12.344-18.28-25.763-25.12-40c6.16-2.88,46.4-19.68,109.84-11.28    c2.209,0.287,4.233-1.271,4.52-3.48c0.287-2.209-1.271-4.233-3.48-4.52c-65.64-8.64-106.72,8.4-114.16,11.8    c-4.952-11.59-8.718-23.651-11.24-36c47.534-17.063,98.848-20.716,148.32-10.56c16.36,3.16,35.96,11.16,42.32,23.4    C367.199,53.63,360.559,66.83,349.199,86.95z M352.559,377.27c16.4,62.24,24,86.84,26.04,93.36l0.12-0.04    c-3.2,4.36-15.2,17.68-44.28,18.6l-6.6-34.28c13.12-1.2,25.72-0.64,30.48,5.72c0.755,1.007,1.941,1.6,3.2,1.6    c0.865,0,1.708-0.281,2.4-0.8c1.767-1.326,2.125-3.833,0.8-5.6c-10.88-14.52-41.04-9.08-63.08-5.12c-4.6,0.84-8.6,1.56-11.76,1.96    c-16.729,2.149-33.675,1.987-50.36-0.48c-10.725-1.722-21.624-2.085-32.44-1.08c-13.579-55.943-14.112-114.258-1.56-170.44    c0.02-0.346,0.02-0.694,0-1.04c0.24-2.64,10.96-17.8,49-36.48c3.08,8.88,10.04,30.92,14.04,50.32    c7.595,35.528,11.894,71.682,12.84,108c0,2.209,1.791,4,4,4c2.209,0,4-1.791,4-4c-0.888-36.865-5.187-73.568-12.84-109.64    c-3.961-17.676-8.82-35.139-14.56-52.32c9.24-4.24,20-8.64,32-13.12C301.719,242.15,335.519,313.55,352.559,377.27z     M320.959,266.07c-8.68-20-16-35.56-19.32-42.48c29.179-10.897,56.708-25.786,81.8-44.24c2.492,21.449-5.102,42.842-20.56,57.92    C351.235,249.883,336.91,259.725,320.959,266.07z" fill="#212121" data-original="#000000" class=""></path>
	</g>
</g>
<g xmlns="http://www.w3.org/2000/svg">
</g>
<g xmlns="http://www.w3.org/2000/svg">
</g>
<g xmlns="http://www.w3.org/2000/svg">
</g>
<g xmlns="http://www.w3.org/2000/svg">
</g>
<g xmlns="http://www.w3.org/2000/svg">
</g>
<g xmlns="http://www.w3.org/2000/svg">
</g>
<g xmlns="http://www.w3.org/2000/svg">
</g>
<g xmlns="http://www.w3.org/2000/svg">
</g>
<g xmlns="http://www.w3.org/2000/svg">
</g>
<g xmlns="http://www.w3.org/2000/svg">
</g>
<g xmlns="http://www.w3.org/2000/svg">
</g>
<g xmlns="http://www.w3.org/2000/svg">
</g>
<g xmlns="http://www.w3.org/2000/svg">
</g>
<g xmlns="http://www.w3.org/2000/svg">
</g>
<g xmlns="http://www.w3.org/2000/svg">
</g>
</g></svg>