<svg xmlns="http://www.w3.org/2000/svg" version="1.1" xmlns:xlink="http://www.w3.org/1999/xlink" xmlns:svgjs="http://svgjs.com/svgjs" width="512" height="512" x="0" y="0" viewBox="0 0 494.24 494.24" style="enable-background:new 0 0 512 512" xml:space="preserve" class=""><g transform="matrix(0.6,0,0,0.6,98.84799499511706,98.84794311523436)">
<g xmlns="http://www.w3.org/2000/svg">
	<g>
		<path d="M356.16,272.564c-0.486-2.209-2.671-3.606-4.88-3.12c-3.76,0.84-7.64,1.68-11.64,2.44    c-2.172,0.403-3.606,2.49-3.203,4.663c0.001,0.006,0.002,0.012,0.003,0.017c0.31,1.912,1.944,3.327,3.88,3.36h0.72    c4-0.76,8-1.6,12-2.48C355.249,276.958,356.646,274.773,356.16,272.564z" fill="#212121" data-original="#000000" class=""></path>
	</g>
</g>
<g xmlns="http://www.w3.org/2000/svg">
	<g>
		<path d="M385.8,183.564l-8-21.04c-14-32.76-33.2-55.8-57.08-68.6c-18.496-9.631-41.029-6.761-56.52,7.2    c-9.683,8.887-24.557,8.887-34.24,0c-15.57-13.787-37.991-16.643-56.52-7.2c-24,12.8-43.08,36-57.16,68.76l-8,21.04    C34.48,209.004,0,239.444,0,279.324c0,69.84,110.88,126.64,247.12,126.64s247.12-56.8,247.12-126.64    C494.24,239.324,459.76,209.004,385.8,183.564z M123.76,165.484c13.24-31,31.36-52.76,53.48-64.64    c15.578-8.072,34.534-5.599,47.52,6.2c12.619,11.679,32.101,11.679,44.72,0c13.005-11.763,31.945-14.218,47.52-6.16    c22.2,12,40,33.6,53.44,64.56l30.4,81.12c-3.48,6.24-14.24,12.32-24,15.76c-2.071,0.736-3.16,3.004-2.44,5.08    c0.586,1.686,2.218,2.779,4,2.68c0.45-0.005,0.897-0.086,1.32-0.24c9.152-2.969,17.547-7.896,24.6-14.44l8,21.72    c-1.44,26-87.68,44-165.16,44s-163.76-18.08-165.2-44.04l8.64-23.04c22.68,18.84,90.6,33.92,156.52,33.92    c20.458,0.047,40.904-1.048,61.24-3.28c2.209-0.243,3.803-2.231,3.56-4.44c-0.243-2.209-2.231-3.803-4.44-3.56    c-20.047,2.166-40.197,3.234-60.36,3.2c-70.8,0-137.72-17.6-153.52-33.96L123.76,165.484z M247.12,398.004    C115.28,398.004,8,344.724,8,279.324c0-34.88,30.88-62.28,96.76-85.92v0.08l-30.56,81.56c-0.193,0.441-0.288,0.919-0.28,1.4    c0,25.56,60.72,52.72,173.2,52.72s173.2-27.16,173.2-52.72c0.008-0.481-0.087-0.959-0.28-1.4l-30.56-81.6    c65.88,23.64,96.76,51.04,96.76,85.92C486.24,344.764,378.96,398.004,247.12,398.004z" fill="#212121" data-original="#000000" class=""></path>
	</g>
</g>
<g xmlns="http://www.w3.org/2000/svg">
	<g>
		<path d="M447.28,296.284c-1.767-1.326-4.274-0.967-5.6,0.8c-10.061,12.58-22.497,23.058-36.6,30.84    c-1.9,1.127-2.526,3.581-1.399,5.481c0.72,1.214,2.027,1.958,3.439,1.959c0.701,0.005,1.39-0.174,2-0.52    c15.031-8.297,28.261-19.501,38.92-32.96C449.374,300.127,449.034,297.622,447.28,296.284z" fill="#212121" data-original="#000000" class=""></path>
	</g>
</g>
<g xmlns="http://www.w3.org/2000/svg">
	<g>
		<path d="M86.274,326.225c-0.011-0.007-0.023-0.014-0.034-0.021c-8.293-5.038-16.041-10.923-23.12-17.56    c-1.493-1.628-4.023-1.739-5.651-0.246c-1.629,1.493-1.739,4.023-0.246,5.651c0.13,0.141,0.269,0.273,0.417,0.394    c7.465,7.048,15.657,13.283,24.44,18.6c0.625,0.387,1.345,0.595,2.08,0.6c1.404,0.008,2.71-0.721,3.44-1.92    C88.753,329.839,88.159,327.377,86.274,326.225z" fill="#212121" data-original="#000000" class=""></path>
	</g>
</g>
<g xmlns="http://www.w3.org/2000/svg">
</g>
<g xmlns="http://www.w3.org/2000/svg">
</g>
<g xmlns="http://www.w3.org/2000/svg">
</g>
<g xmlns="http://www.w3.org/2000/svg">
</g>
<g xmlns="http://www.w3.org/2000/svg">
</g>
<g xmlns="http://www.w3.org/2000/svg">
</g>
<g xmlns="http://www.w3.org/2000/svg">
</g>
<g xmlns="http://www.w3.org/2000/svg">
</g>
<g xmlns="http://www.w3.org/2000/svg">
</g>
<g xmlns="http://www.w3.org/2000/svg">
</g>
<g xmlns="http://www.w3.org/2000/svg">
</g>
<g xmlns="http://www.w3.org/2000/svg">
</g>
<g xmlns="http://www.w3.org/2000/svg">
</g>
<g xmlns="http://www.w3.org/2000/svg">
</g>
<g xmlns="http://www.w3.org/2000/svg">
</g>
</g></svg>